<svg width="512" height="512" xmlns="http://www.w3.org/2000/svg">

  <g>
    <title>background</title>
    <rect fill="none" id="canvas_background" height="402" width="582" y="-1" x="-1"/>
  </g>
  <g>
    <title>Layer 1</title>
    <path fill="#498aff" id="svg_1" d="m256,161.2c-52.3,0 -94.8,42.5 -94.8,94.8s42.5,94.8 94.8,94.8s94.8,-42.5 94.8,-94.8s-42.5,-94.8 -94.8,-94.8z"/>
    <circle fill="#498aff" id="svg_2" r="43.2" cy="126.4" cx="392.1"/>
    <path fill="#498aff" id="svg_3" d="m445.3,169.8l-1.8,-4l-2.9,3.3c-7.1,8 -16.1,14.2 -26.1,17.9l-2.8,1l1.1,2.7c8.6,20.7 13,42.7 13,65.2c0,93.7 -76.2,169.9 -169.9,169.9s-169.8,-76.1 -169.8,-169.8s76.2,-169.9 169.9,-169.9c25.4,0 49.9,5.5 72.8,16.4l2.7,1.3l1.2,-2.7c4.2,-9.8 10.8,-18.5 19.2,-25.2l3.4,-2.7l-3.9,-2c-29.8,-15.4 -61.9,-23.2 -95.4,-23.2c-114.7,0 -208,93.3 -208,208s93.3,208 208,208s208,-93.3 208,-208c0,-30 -6.3,-59 -18.7,-86.2z"/>
  </g>
</svg>
